# Blender 5.0.0
# www.blender.org
mtllib wall4.mtl
o Cube.001
v 1.500000 -0.500000 -2.500000
v 1.500000 0.500000 -2.500000
v 1.500000 -0.500000 -3.500000
v 1.500000 0.500000 -3.500000
v 2.500000 -0.500000 -2.500000
v 2.500000 0.500000 -2.500000
v 2.500000 -0.500000 -3.500000
v 2.500000 0.500000 -3.500000
v 1.500000 -0.500000 -3.000000
v 1.500000 0.500000 -3.000000
v 2.500000 -0.500000 -3.000000
v 2.500000 0.500000 -3.000000
v 2.000000 -0.500000 -3.500000
v 2.000000 0.500000 -3.500000
v 2.000000 -0.500000 -2.500000
v 2.000000 0.500000 -2.500000
v 2.000000 -0.500000 -3.000000
v 1.850000 -0.500000 -3.500000
v 1.850000 0.500000 -2.500000
v 1.850000 -0.500000 -3.000000
v 1.850000 0.500000 -3.500000
v 1.850000 -0.500000 -2.500000
v 2.150000 0.500000 -3.500000
v 2.150000 -0.500000 -2.500000
v 2.150000 -0.500000 -3.500000
v 2.150000 0.500000 -2.500000
v 2.150000 -0.500000 -3.000000
v 1.500000 0.500000 -3.150000
v 2.500000 -0.500000 -3.150000
v 1.500000 -0.500000 -3.150000
v 2.500000 0.500000 -3.150000
v 2.000000 -0.500000 -3.150000
v 1.850000 -0.500000 -3.150000
v 2.150000 -0.500000 -3.150000
v 1.500000 -0.500000 -2.850000
v 2.500000 0.500000 -2.850000
v 1.500000 0.500000 -2.850000
v 2.500000 -0.500000 -2.850000
v 2.000000 -0.500000 -2.850000
v 1.850000 -0.500000 -2.850000
v 2.150000 -0.500000 -2.850000
v 1.500000 0.500000 -3.255000
v 2.500000 -0.500000 -3.255000
v 1.500000 -0.500000 -3.255000
v 2.500000 0.500000 -3.255000
v 2.000000 -0.500000 -3.255000
v 1.850000 -0.500000 -3.255000
v 1.850000 0.500000 -3.255000
v 2.150000 0.500000 -3.255000
v 2.150000 -0.500000 -3.255000
v 2.255000 0.500000 -3.500000
v 2.255000 -0.500000 -2.500000
v 2.255000 -0.500000 -3.500000
v 2.255000 0.500000 -2.500000
v 2.255000 -0.500000 -3.000000
v 2.255000 0.500000 -3.150000
v 2.255000 -0.500000 -3.150000
v 2.255000 0.500000 -2.850000
v 2.255000 -0.500000 -2.850000
v 2.255000 -0.500000 -3.255000
v 2.255000 0.500000 -3.255000
v 1.500000 -0.500000 -2.745000
v 2.500000 0.500000 -2.745000
v 2.000000 -0.500000 -2.745000
v 1.850000 -0.500000 -2.745000
v 1.850000 0.500000 -2.745000
v 2.150000 0.500000 -2.745000
v 2.150000 -0.500000 -2.745000
v 1.500000 0.500000 -2.745000
v 2.500000 -0.500000 -2.745000
v 2.255000 0.500000 -2.745000
v 2.255000 -0.500000 -2.745000
v 1.745000 -0.500000 -3.500000
v 1.745000 0.500000 -2.500000
v 1.745000 -0.500000 -3.000000
v 1.745000 0.500000 -3.500000
v 1.745000 -0.500000 -2.500000
v 1.745000 -0.500000 -3.150000
v 1.745000 0.500000 -3.150000
v 1.745000 -0.500000 -2.850000
v 1.745000 0.500000 -2.850000
v 1.745000 0.500000 -3.255000
v 1.745000 -0.500000 -3.255000
v 1.745000 -0.500000 -2.745000
v 1.745000 0.500000 -2.745000
v 1.500000 2.000000 -3.000000
v 2.500000 2.000000 -3.000000
v 2.000000 2.000000 -3.500000
v 2.000000 2.000000 -2.500000
v 2.000000 2.000000 -3.000000
v 1.850000 2.000000 -2.500000
v 1.850000 2.000000 -3.500000
v 1.850000 2.000000 -3.000000
v 2.150000 2.000000 -3.500000
v 2.150000 2.000000 -3.000000
v 2.150000 2.000000 -2.500000
v 1.500000 2.000000 -3.150000
v 2.500000 2.000000 -3.150000
v 2.000000 2.000000 -3.150000
v 1.850000 2.000000 -3.150000
v 2.150000 2.000000 -3.150000
v 2.500000 2.000000 -2.850000
v 1.500000 2.000000 -2.850000
v 2.000000 2.000000 -2.850000
v 1.850000 2.000000 -2.850000
v 2.150000 2.000000 -2.850000
v 2.000000 2.000000 -3.255000
v 1.850000 2.000000 -3.255000
v 2.150000 2.000000 -3.255000
v 2.255000 2.000000 -3.000000
v 2.255000 2.000000 -3.150000
v 2.255000 2.000000 -2.850000
v 2.255000 2.000000 -3.255000
v 2.000000 2.000000 -2.745000
v 1.850000 2.000000 -2.745000
v 2.150000 2.000000 -2.745000
v 2.255000 2.000000 -2.745000
v 1.745000 2.000000 -3.000000
v 1.745000 2.000000 -3.150000
v 1.745000 2.000000 -2.850000
v 1.745000 2.000000 -3.255000
v 1.745000 2.000000 -2.745000
vn -1.0000 -0.0000 -0.0000
vn -0.0000 -0.0000 -1.0000
vn 1.0000 -0.0000 -0.0000
vn -0.0000 -0.0000 1.0000
vn -0.0000 -1.0000 -0.0000
vn -0.0000 1.0000 -0.0000
vt 0.375000 0.188750
vt 0.625000 0.188750
vt 0.625000 0.250000
vt 0.375000 0.250000
vt 0.375000 0.438750
vt 0.625000 0.438750
vt 0.625000 0.500000
vt 0.375000 0.500000
vt 0.375000 0.688750
vt 0.625000 0.688750
vt 0.625000 0.750000
vt 0.375000 0.750000
vt 0.375000 0.938750
vt 0.625000 0.938750
vt 0.625000 1.000000
vt 0.375000 1.000000
vt 0.313750 0.688750
vt 0.313750 0.750000
vt 0.813750 0.688750
vt 0.875000 0.688750
vt 0.875000 0.750000
vt 0.813750 0.750000
vt 0.686250 0.688750
vt 0.686250 0.662500
vt 0.313750 0.587500
vt 0.375000 0.587500
vt 0.375000 0.625000
vt 0.313750 0.625000
vt 0.625000 0.587500
vt 0.625000 0.625000
vt 0.375000 0.087500
vt 0.625000 0.087500
vt 0.625000 0.125000
vt 0.375000 0.125000
vt 0.212500 0.587500
vt 0.250000 0.587500
vt 0.250000 0.625000
vt 0.212500 0.625000
vt 0.787500 0.561250
vt 0.813750 0.561250
vt 0.686250 0.561250
vt 0.712500 0.561250
vt 0.212500 0.688750
vt 0.250000 0.688750
vt 0.250000 0.750000
vt 0.212500 0.750000
vt 0.375000 0.837500
vt 0.625000 0.837500
vt 0.625000 0.875000
vt 0.375000 0.875000
vt 0.375000 0.337500
vt 0.625000 0.337500
vt 0.625000 0.375000
vt 0.375000 0.375000
vt 0.375000 0.311250
vt 0.625000 0.311250
vt 0.186250 0.688750
vt 0.186250 0.750000
vt 0.186250 0.587500
vt 0.186250 0.625000
vt 0.813750 0.587500
vt 0.875000 0.587500
vt 0.625000 0.912500
vt 0.375000 0.912500
vt 0.375000 0.811250
vt 0.625000 0.811250
vt 0.712500 0.688750
vt 0.712500 0.750000
vt 0.686250 0.750000
vt 0.287500 0.587500
vt 0.287500 0.625000
vt 0.287500 0.688750
vt 0.287500 0.750000
vt 0.625000 0.412500
vt 0.375000 0.412500
vt 0.250000 0.561250
vt 0.287500 0.561250
vt 0.686250 0.587500
vt 0.712500 0.500000
vt 0.186250 0.561250
vt 0.212500 0.561250
vt 0.813750 0.662500
vt 0.375000 0.561250
vt 0.625000 0.561250
vt 0.313750 0.561250
vt 0.875000 0.561250
vt 0.625000 0.162500
vt 0.375000 0.162500
vt 0.287500 0.662500
vt 0.250000 0.662500
vt 0.212500 0.662500
vt 0.186250 0.662500
vt 0.375000 0.061250
vt 0.625000 0.061250
vt 0.787500 0.500000
vt 0.375000 0.662500
vt 0.313750 0.662500
vt 0.625000 0.662500
vt 0.813750 0.500000
vt 0.875000 0.500000
vt 0.313750 0.500000
vt 0.212500 0.500000
vt 0.250000 0.500000
vt 0.186250 0.500000
vt 0.686250 0.500000
vt 0.287500 0.500000
vt 0.375000 0.000000
vt 0.625000 0.000000
vt 0.787500 0.688750
vt 0.787500 0.750000
vt 0.875000 0.662500
vt 0.125000 0.662500
vt 0.125000 0.688750
vt 0.125000 0.500000
vt 0.125000 0.561250
vt 0.125000 0.625000
vt 0.125000 0.587500
vt 0.125000 0.750000
vt 0.875000 0.625000
vt 0.813750 0.625000
vt 0.712500 0.587500
vt 0.750000 0.587500
vt 0.750000 0.625000
vt 0.712500 0.625000
vt 0.750000 0.688750
vt 0.750000 0.750000
vt 0.787500 0.587500
vt 0.787500 0.625000
vt 0.686250 0.625000
vt 0.750000 0.561250
vt 0.712500 0.662500
vt 0.787500 0.662500
vt 0.750000 0.662500
vt 0.750000 0.500000
s 0
f 44/1/1 42/2/1 4/3/1 3/4/1
f 53/5/2 51/6/2 8/7/2 7/8/2
f 70/9/3 63/10/3 6/11/3 5/12/3
f 77/13/4 74/14/4 2/15/4 1/16/4
f 72/17/5 70/9/5 5/12/5 52/18/5
f 85/19/6 69/20/6 2/21/6 74/22/6
f 71/23/3 58/24/3 112/24/3 117/23/3
f 57/25/5 29/26/5 11/27/5 55/28/5
f 29/26/3 31/29/3 12/30/3 11/27/3
f 35/31/1 37/32/1 10/33/1 9/34/1
f 33/35/5 32/36/5 17/37/5 20/38/5
f 48/39/2 82/40/2 121/40/2 108/39/2
f 61/41/2 49/42/2 109/42/2 113/41/2
f 65/43/5 64/44/5 15/45/5 22/46/5
f 24/47/4 26/48/4 16/49/4 15/50/4
f 18/51/2 21/52/2 14/53/2 13/54/2
f 73/55/2 76/56/2 21/52/2 18/51/2
f 84/57/5 65/43/5 22/46/5 77/58/5
f 78/59/5 33/35/5 20/38/5 75/60/5
f 16/49/4 26/48/4 96/48/4 89/49/4
f 79/61/2 28/62/2 97/62/2 119/61/2
f 15/50/4 16/49/4 19/63/4 22/64/4
f 52/65/4 54/66/4 26/48/4 24/47/4
f 71/23/6 67/67/6 26/68/6 54/69/6
f 67/67/4 71/23/4 117/23/4 116/67/4
f 32/36/5 34/70/5 27/71/5 17/37/5
f 64/44/5 68/72/5 24/73/5 15/45/5
f 13/54/2 14/53/2 23/74/2 25/75/2
f 46/76/5 50/77/5 34/70/5 32/36/5
f 31/29/2 56/78/2 111/78/2 98/29/2
f 49/42/3 23/79/3 94/79/3 109/42/3
f 83/80/5 47/81/5 33/35/5 78/59/5
f 81/82/1 85/19/1 122/19/1 120/82/1
f 47/81/5 46/76/5 32/36/5 33/35/5
f 43/83/3 45/84/3 31/29/3 29/26/3
f 60/85/5 43/83/5 29/26/5 57/25/5
f 82/40/6 42/86/6 28/62/6 79/61/6
f 9/34/1 10/33/1 28/87/1 30/88/1
f 17/37/5 27/71/5 41/89/5 39/90/5
f 12/30/3 31/29/3 98/29/3 87/30/3
f 56/78/3 61/41/3 113/41/3 111/78/3
f 75/60/5 20/38/5 40/91/5 80/92/5
f 20/38/5 17/37/5 39/90/5 40/91/5
f 23/74/2 14/53/2 88/53/2 94/74/2
f 62/93/1 69/94/1 37/32/1 35/31/1
f 21/95/1 48/39/1 108/39/1 92/95/1
f 55/28/5 11/27/5 38/96/5 59/97/5
f 11/27/3 12/30/3 36/98/3 38/96/3
f 76/99/6 4/100/6 42/86/6 82/40/6
f 53/101/5 7/8/5 43/83/5 60/85/5
f 7/8/3 8/7/3 45/84/3 43/83/3
f 18/102/5 13/103/5 46/76/5 47/81/5
f 26/68/3 67/67/3 116/67/3 96/68/3
f 73/104/5 18/102/5 47/81/5 83/80/5
f 82/40/1 79/61/1 119/61/1 121/40/1
f 51/105/6 23/79/6 49/42/6 61/41/6
f 13/103/5 25/106/5 50/77/5 46/76/5
f 30/88/1 28/87/1 42/2/1 44/1/1
f 8/7/6 51/105/6 61/41/6 45/84/6
f 25/106/5 53/101/5 60/85/5 50/77/5
f 27/71/5 55/28/5 59/97/5 41/89/5
f 14/53/2 21/52/2 92/52/2 88/53/2
f 50/77/5 60/85/5 57/25/5 34/70/5
f 45/84/6 61/41/6 56/78/6 31/29/6
f 58/24/4 36/98/4 102/98/4 112/24/4
f 63/10/6 71/23/6 54/69/6 6/11/6
f 5/12/4 6/11/4 54/66/4 52/65/4
f 34/70/5 57/25/5 55/28/5 27/71/5
f 68/72/5 72/17/5 52/18/5 24/73/5
f 25/75/2 23/74/2 51/6/2 53/5/2
f 41/89/5 59/97/5 72/17/5 68/72/5
f 36/98/6 58/24/6 71/23/6 63/10/6
f 1/107/1 2/108/1 69/94/1 62/93/1
f 39/90/5 41/89/5 68/72/5 64/44/5
f 10/33/1 37/32/1 103/32/1 86/33/1
f 85/19/4 66/109/4 115/109/4 122/19/4
f 80/92/5 40/91/5 65/43/5 84/57/5
f 40/91/5 39/90/5 64/44/5 65/43/5
f 66/109/1 19/110/1 91/110/1 115/109/1
f 81/82/6 37/111/6 69/20/6 85/19/6
f 59/97/5 38/96/5 70/9/5 72/17/5
f 38/96/3 36/98/3 63/10/3 70/9/3
f 28/87/1 10/33/1 86/33/1 97/87/1
f 35/112/5 80/92/5 84/57/5 62/113/5
f 3/114/5 73/104/5 83/80/5 44/115/5
f 21/95/6 76/99/6 82/40/6 48/39/6
f 19/63/4 16/49/4 89/49/4 91/63/4
f 9/116/5 75/60/5 80/92/5 35/112/5
f 36/98/3 12/30/3 87/30/3 102/98/3
f 44/115/5 83/80/5 78/59/5 30/117/5
f 30/117/5 78/59/5 75/60/5 9/116/5
f 62/113/5 84/57/5 77/58/5 1/118/5
f 3/4/2 4/3/2 76/56/2 73/55/2
f 37/111/4 81/82/4 120/82/4 103/111/4
f 66/109/6 85/19/6 74/22/6 19/110/6
f 22/64/4 19/63/4 74/14/4 77/13/4
f 119/61/6 97/62/6 86/119/6 118/120/6
f 101/121/6 99/122/6 90/123/6 95/124/6
f 116/67/6 114/125/6 89/126/6 96/68/6
f 99/122/6 100/127/6 93/128/6 90/123/6
f 114/125/6 115/109/6 91/110/6 89/126/6
f 111/78/6 101/121/6 95/124/6 110/129/6
f 113/41/6 109/42/6 101/121/6 111/78/6
f 107/130/6 108/39/6 100/127/6 99/122/6
f 109/42/6 107/130/6 99/122/6 101/121/6
f 110/129/6 95/124/6 106/131/6 112/24/6
f 90/123/6 93/128/6 105/132/6 104/133/6
f 95/124/6 90/123/6 104/133/6 106/131/6
f 118/120/6 86/119/6 103/111/6 120/82/6
f 94/79/6 88/134/6 107/130/6 109/42/6
f 88/134/6 92/95/6 108/39/6 107/130/6
f 87/30/6 110/129/6 112/24/6 102/98/6
f 98/29/6 111/78/6 110/129/6 87/30/6
f 112/24/6 106/131/6 116/67/6 117/23/6
f 104/133/6 105/132/6 115/109/6 114/125/6
f 106/131/6 104/133/6 114/125/6 116/67/6
f 105/132/6 120/82/6 122/19/6 115/109/6
f 93/128/6 118/120/6 120/82/6 105/132/6
f 108/39/6 121/40/6 119/61/6 100/127/6
f 100/127/6 119/61/6 118/120/6 93/128/6
